<svg xmlns="http://www.w3.org/2000/svg" xmlns:xlink="http://www.w3.org/1999/xlink" width="500" zoomAndPan="magnify" viewBox="0 0 375 374.999991" height="500" preserveAspectRatio="xMidYMid meet" version="1.0"><defs><g/><clipPath id="aa99809304"><path d="M 140 122.625 L 235.878906 122.625 L 235.878906 190.125 L 140 190.125 Z M 140 122.625 " clip-rule="nonzero"/></clipPath></defs><rect x="-37.5" width="450" fill="#ffffff" y="-37.499999" height="449.999989" fill-opacity="1"/><rect x="-37.5" width="450" fill="#ffffff" y="-37.499999" height="449.999989" fill-opacity="1"/><g clip-path="url(#aa99809304)"><path fill="#000000" d="M 164.859375 169.484375 L 164.550781 172.886719 C 164.378906 174.914062 165.375 181.589844 164 183.300781 C 159.960938 188.332031 146.90625 187.484375 146.589844 179.226562 C 145.847656 168.671875 144.328125 153.429688 145.71875 142.878906 C 145.910156 141.621094 146.933594 137.585938 148.042969 136.773438 C 148.660156 136.316406 152.816406 135.765625 153.554688 135.609375 C 154.507812 136.960938 156.777344 140.289062 160.230469 140.289062 C 164.277344 140.289062 167.203125 137.03125 167.484375 135.316406 C 169.460938 135.335938 172.488281 135.28125 174.449219 135.316406 C 174.449219 135.3125 179.671875 135.03125 179.671875 135.027344 C 181.378906 135.0625 184.730469 134.914062 186.054688 134.734375 C 189.261719 134.304688 188.816406 132.5 190.117188 129.792969 C 191.351562 127.230469 202.414062 127.941406 202.886719 129.210938 C 203.625 131.207031 204.4375 136.101562 206.65625 135.898438 C 209.847656 135.609375 210.445312 135.597656 211.589844 135.609375 C 215.132812 135.605469 219.695312 134.792969 222.90625 136.191406 C 225.492188 137.316406 228.328125 142.394531 228.421875 144.914062 C 228.988281 156.324219 229.992188 168.9375 229.582031 180.390625 C 229.511719 181.914062 229.382812 182.613281 228.421875 183.882812 C 227.410156 185.214844 222.058594 185.105469 220.539062 185.179688 C 216.417969 185.351562 169.675781 185.570312 169.523438 188.214844 C 170.371094 189.492188 216.761719 190.019531 220.675781 190.054688 C 228.925781 190.019531 234.261719 186.382812 234.945312 178.636719 C 235.894531 166.644531 234.914062 155.820312 235.195312 144.144531 C 235.335938 135.480469 228.449219 130.972656 219.851562 129.894531 C 216.449219 129.488281 213.121094 129.324219 209.734375 129.246094 C 206.875 129.179688 208.921875 130.222656 208.347656 128.550781 C 207.660156 126.535156 206.734375 124.558594 204.789062 123.464844 C 203.757812 122.910156 202.894531 122.695312 201.726562 122.671875 C 197.945312 122.652344 194.222656 122.808594 190.464844 122.800781 C 184.871094 122.851562 183.585938 128.738281 182.664062 129.621094 C 182.890625 129.238281 183.652344 129.074219 184.054688 129.050781 C 184.058594 129.050781 183.832031 129.058594 183.722656 129.066406 C 180.46875 129.046875 177.199219 128.933594 173.945312 128.867188 C 173.945312 128.859375 173.945312 128.851562 173.945312 128.84375 C 167.90625 128.726562 156.855469 128.371094 150.980469 129.691406 C 144.332031 131.1875 141.660156 135.402344 140.679688 141.875 C 139.160156 153.367188 140.542969 164.195312 141.347656 175.625 C 141.609375 179.585938 141.878906 184.101562 144.914062 187.023438 C 147.949219 189.945312 152.484375 189.996094 156.441406 189.910156 C 159.507812 189.84375 162.507812 189.488281 165.210938 187.933594 C 165.207031 187.925781 165.203125 187.917969 165.199219 187.914062 C 171.195312 184.28125 170.402344 177.835938 171.078125 171.765625 C 171.460938 168.34375 171.714844 165.011719 172.328125 161.605469 C 175.167969 145.867188 193.972656 139.34375 206.953125 147.542969 C 213.101562 151.425781 215.675781 159.195312 214.382812 166.167969 C 213.800781 169.105469 212.925781 171.234375 211.351562 173.777344 C 205.828125 182.382812 190.722656 183.578125 183.746094 176.863281 C 181.238281 174.332031 179.816406 172.046875 178.9375 168.582031 C 178.03125 164.148438 178.5625 159.308594 181.054688 155.558594 C 183.523438 151.847656 187.925781 149.203125 192.410156 148.777344 C 188.1875 146.851562 182.226562 149.65625 178.917969 153.863281 C 175.484375 158.238281 174.796875 164.152344 175.519531 169.246094 C 176.304688 173.558594 178.488281 175.683594 181.410156 178.9375 C 189.980469 188.09375 207.261719 186.886719 214.78125 175.449219 C 219.980469 167.542969 220.304688 157.792969 215.074219 149.277344 C 213.246094 146.398438 211.765625 145.128906 208.980469 143.167969 C 201.042969 137.796875 193.730469 138.039062 184.894531 140.84375 C 169.867188 145.609375 166.257812 155.695312 164.859375 169.484375 Z M 195.375 152.804688 C 198.972656 152.804688 202.230469 154.265625 204.59375 156.621094 C 204.863281 156.890625 205.679688 158.433594 205.4375 158.722656 C 204.980469 159.273438 202.507812 155.683594 197.207031 155.683594 C 191.015625 155.683594 185.992188 160.714844 185.992188 166.921875 C 185.992188 170.871094 188.023438 174.34375 191.097656 176.347656 C 192.328125 177.152344 195.828125 177.785156 195.613281 178.050781 C 194.632812 179.25 191.738281 178.558594 190.449219 178.035156 C 185.675781 176.085938 182.308594 171.386719 182.308594 165.902344 C 182.308594 158.667969 188.15625 152.804688 195.375 152.804688 Z M 195.375 152.804688 " fill-opacity="1" fill-rule="nonzero"/></g><g fill="#000000" fill-opacity="1"><g transform="translate(113.307661, 228.432875)"><g><path d="M 1.53125 -1.65625 C 0.78125 -4.566406 0.9375 -8.007812 0.96875 -10.976562 C 1 -14.292969 1.0625 -18.328125 5.128906 -18.765625 C 6.285156 -18.890625 11.539062 -19.640625 12.230469 -18.703125 C 13.136719 -18.390625 12.792969 -17.042969 12.605469 -16.417969 C 12.164062 -14.917969 11.226562 -14.574219 9.789062 -14.386719 C 8.601562 -14.230469 5.941406 -13.511719 6.222656 -11.820312 C 6.441406 -10.382812 8.820312 -10.851562 9.789062 -10.632812 C 11.164062 -10.320312 11.789062 -8.726562 10.851562 -7.601562 C 10.195312 -6.785156 8.851562 -6.847656 7.914062 -6.753906 C 4.816406 -6.441406 6.347656 -3.910156 5.816406 -1.71875 C 5.285156 0.53125 2.09375 0.59375 1.53125 -1.65625 Z M 1.53125 -1.65625 "/></g></g></g><g fill="#000000" fill-opacity="1"><g transform="translate(127.690633, 228.432875)"><g><path d="M 10.976562 -0.4375 C 7.097656 1.1875 3.597656 -1.875 2.375 -5.410156 C 1.1875 -8.851562 0.34375 -13.824219 1.4375 -17.359375 C 1.9375 -18.890625 3.347656 -19.515625 4.878906 -19.140625 C 6.191406 -18.796875 5.566406 -16.980469 5.503906 -16.667969 C 4.972656 -13.949219 4.660156 -8.601562 6.628906 -6.253906 C 9.070312 -3.410156 10.101562 -7.664062 10.164062 -9.507812 C 10.289062 -11.945312 8.132812 -19.109375 11.351562 -19.765625 C 16.699219 -20.859375 15.480469 -14.261719 15.167969 -10.851562 C 14.855469 -7.285156 14.886719 -2.0625 10.976562 -0.4375 Z M 10.976562 -0.4375 "/></g></g></g><g fill="#000000" fill-opacity="1"><g transform="translate(145.70041, 228.432875)"><g><path d="M 2.4375 -0.09375 C 0.0625 -0.65625 1.25 -9.039062 1.1875 -10.632812 C 1.15625 -12.886719 1.0625 -15.167969 1.09375 -17.421875 C 1.09375 -19.515625 2.28125 -19.796875 4.128906 -19.921875 C 6.253906 -20.046875 6.597656 -18.515625 6.628906 -16.636719 C 8.070312 -14.605469 9.195312 -12.355469 10.664062 -10.351562 C 10.945312 -12.792969 10.320312 -19.703125 13.949219 -19.859375 C 16.480469 -19.984375 15.730469 -12.886719 15.730469 -11.507812 C 15.730469 -9.382812 16.949219 -2.816406 14.511719 -1.53125 C 9.726562 0.96875 7.191406 -7.035156 6.128906 -9.101562 C 5.910156 -6.628906 6.785156 0.9375 2.4375 -0.09375 Z M 2.4375 -0.09375 "/></g></g></g><g fill="#000000" fill-opacity="1"><g transform="translate(164.241705, 228.432875)"><g/></g></g><g fill="#000000" fill-opacity="1"><g transform="translate(175.498119, 228.432875)"><g><path d="M 3.597656 -0.0625 C 0.46875 0.5 1.125 -3.378906 1.125 -5.347656 C 1.125 -8.914062 0.96875 -12.480469 0.9375 -16.042969 C 0.9375 -17.609375 0.9375 -19.546875 2.722656 -19.828125 L 2.847656 -19.828125 C 6.847656 -20.890625 14.417969 -20.359375 14.917969 -15.011719 C 15.136719 -12.417969 13.824219 -9.664062 11.757812 -8.132812 C 11.070312 -7.601562 5.722656 -5.753906 5.691406 -5.253906 C 5.597656 -3.503906 5.910156 -0.4375 3.597656 -0.0625 Z M 5.941406 -8.507812 C 6.910156 -8.882812 12.007812 -11.726562 10.007812 -13.417969 C 9.226562 -14.074219 7.851562 -13.761719 6.941406 -13.699219 C 5.785156 -13.605469 6.035156 -9.507812 5.941406 -8.507812 Z M 5.941406 -8.507812 "/></g></g></g><g fill="#000000" fill-opacity="1"><g transform="translate(192.007153, 228.432875)"><g><path d="M 3.847656 -0.0625 C 0.09375 0.65625 1.5625 -6.597656 1.46875 -8.632812 C 1.34375 -11.101562 1.1875 -13.542969 0.96875 -16.011719 C 0.75 -18.453125 2 -18.546875 4.035156 -18.734375 C 5.535156 -18.890625 6.878906 -19.078125 6.597656 -17.109375 C 6.253906 -14.667969 5.847656 -12.261719 5.816406 -9.789062 C 8.476562 -9.851562 7.726562 -9.820312 10.132812 -9.820312 C 9.914062 -12.101562 8.820312 -17.296875 10.320312 -19.328125 C 11.039062 -20.296875 12.980469 -20.296875 14.042969 -20.078125 C 15.980469 -19.671875 15.417969 -16.105469 15.324219 -14.792969 C 15.011719 -10.601562 15.292969 -5.722656 14.167969 -1.6875 C 13.792969 -0.34375 12.230469 0.09375 10.976562 -0.375 C 9.476562 -0.90625 9.976562 -4.347656 10.007812 -5.503906 C 9.601562 -5.503906 5.285156 -5.441406 5.285156 -4.910156 C 5.253906 -3.535156 5.722656 -0.40625 3.847656 -0.0625 Z M 3.847656 -0.0625 "/></g></g></g><g fill="#000000" fill-opacity="1"><g transform="translate(209.98566, 228.432875)"><g><path d="M 11.726562 -1.625 C 7.253906 2.753906 2.25 -2.566406 1.21875 -7.066406 C 0.1875 -11.789062 2.09375 -17.453125 6.691406 -19.609375 C 12.164062 -22.207031 14.855469 -16.917969 14.886719 -16.105469 C 16.449219 -12.101562 14.824219 -4.660156 11.726562 -1.625 Z M 7.285156 -3.316406 C 10.539062 -1.875 13.542969 -11.726562 10.476562 -13.480469 C 8.382812 -14.730469 6.753906 -11.851562 6.160156 -10.257812 C 5.410156 -8.382812 4.878906 -4.347656 7.285156 -3.316406 Z M 7.285156 -3.316406 "/></g></g></g><g fill="#000000" fill-opacity="1"><g transform="translate(227.964167, 228.432875)"><g><path d="M 8.882812 -0.4375 C 6.066406 1.21875 5.628906 -2.25 5.535156 -4.128906 C 5.410156 -5.722656 5.410156 -7.316406 5.441406 -8.914062 C 5.441406 -9.945312 6.066406 -13.542969 4.910156 -13.386719 C 5.128906 -13.355469 0.78125 -12.355469 0.9375 -16.667969 C 1.03125 -19.578125 3.285156 -19.796875 5.753906 -19.734375 C 8.414062 -19.671875 11.320312 -19.796875 13.980469 -19.359375 C 17.640625 -18.765625 14.792969 -14.980469 12.574219 -14.449219 C 11.070312 -14.074219 11.039062 -14.386719 10.945312 -12.605469 C 10.882812 -11.101562 10.757812 -9.570312 10.632812 -8.070312 C 10.476562 -6.191406 10.757812 -1.5625 8.882812 -0.4375 Z M 8.882812 -0.4375 "/></g></g></g><g fill="#000000" fill-opacity="1"><g transform="translate(245.254838, 228.432875)"><g><path d="M 11.726562 -1.625 C 7.253906 2.753906 2.25 -2.566406 1.21875 -7.066406 C 0.1875 -11.789062 2.09375 -17.453125 6.691406 -19.609375 C 12.164062 -22.207031 14.855469 -16.917969 14.886719 -16.105469 C 16.449219 -12.101562 14.824219 -4.660156 11.726562 -1.625 Z M 7.285156 -3.316406 C 10.539062 -1.875 13.542969 -11.726562 10.476562 -13.480469 C 8.382812 -14.730469 6.753906 -11.851562 6.160156 -10.257812 C 5.410156 -8.382812 4.878906 -4.347656 7.285156 -3.316406 Z M 7.285156 -3.316406 "/></g></g></g></svg>