<svg xmlns="http://www.w3.org/2000/svg" xmlns:xlink="http://www.w3.org/1999/xlink" width="500" zoomAndPan="magnify" viewBox="0 0 375 374.999991" height="500" preserveAspectRatio="xMidYMid meet" version="1.0"><defs><g/><clipPath id="ba6bd213b8"><path d="M 141.378906 141.230469 L 233.617188 141.230469 L 233.617188 233.46875 L 141.378906 233.46875 Z M 141.378906 141.230469 " clip-rule="nonzero"/></clipPath><clipPath id="531353d738"><path d="M 187.496094 141.230469 C 162.027344 141.230469 141.378906 161.878906 141.378906 187.351562 C 141.378906 212.820312 162.027344 233.46875 187.496094 233.46875 C 212.96875 233.46875 233.617188 212.820312 233.617188 187.351562 C 233.617188 161.878906 212.96875 141.230469 187.496094 141.230469 Z M 187.496094 141.230469 " clip-rule="nonzero"/></clipPath><clipPath id="e92f6b7816"><path d="M 77.453125 134.683594 L 98.453125 134.683594 L 98.453125 155.683594 L 77.453125 155.683594 Z M 77.453125 134.683594 " clip-rule="nonzero"/></clipPath><clipPath id="0c13c23560"><path d="M 276.664062 214.679688 L 297.664062 214.679688 L 297.664062 235.679688 L 276.664062 235.679688 Z M 276.664062 214.679688 " clip-rule="nonzero"/></clipPath></defs><g clip-path="url(#ba6bd213b8)"><g clip-path="url(#531353d738)"><path stroke-linecap="butt" transform="matrix(0.75, 0, 0, 0.75, 141.378554, 141.23126)" fill="none" stroke-linejoin="miter" d="M 61.49006 -0.00105437 C 27.531723 -0.00105437 0.000469112 27.530199 0.000469112 61.493745 C 0.000469112 95.452083 27.531723 122.983337 61.49006 122.983337 C 95.453606 122.983337 122.98486 95.452083 122.98486 61.493745 C 122.98486 27.530199 95.453606 -0.00105437 61.49006 -0.00105437 Z M 61.49006 -0.00105437 " stroke="#544541" stroke-width="6" stroke-opacity="1" stroke-miterlimit="4"/></g></g><path stroke-linecap="round" transform="matrix(0.75, 0, 0, 0.75, 218.45003, 107.792131)" fill="none" stroke-linejoin="miter" d="M 1.498918 1.501117 L 90.493716 1.501117 " stroke="#544541" stroke-width="3" stroke-opacity="1" stroke-miterlimit="4"/><path stroke-linecap="round" transform="matrix(0, 0.75, -0.75, 0, 288.495485, 107.797611)" fill="none" stroke-linejoin="miter" d="M 1.499019 1.499188 L 129.108403 1.499188 " stroke="#544541" stroke-width="3" stroke-opacity="1" stroke-miterlimit="4"/><g fill="#544541" fill-opacity="1"><g transform="translate(87.768918, 123.711754)"><g><path d="M 1.640625 0 L 6.859375 0 L 6.859375 -0.417969 C 5.859375 -0.707031 5.570312 -1.449219 5.570312 -4.089844 L 5.570312 -12.078125 L 9.402344 -12.078125 C 13.074219 -12.078125 13.976562 -11.304688 14.394531 -9.855469 L 14.78125 -9.855469 L 14.78125 -14.75 L 14.394531 -14.75 C 13.976562 -13.332031 13.074219 -12.558594 9.402344 -12.59375 L 5.570312 -12.59375 L 5.570312 -22.027344 L 11.273438 -22.027344 C 14.296875 -22.027344 15.652344 -21.222656 16.746094 -19.066406 L 17.101562 -19.160156 L 16.8125 -22.542969 L 1.640625 -22.542969 L 1.640625 -22.125 C 2.609375 -21.835938 2.929688 -21.09375 2.929688 -18.453125 L 2.929688 -4.089844 C 2.929688 -1.449219 2.609375 -0.707031 1.640625 -0.417969 Z M 1.640625 0 "/></g></g></g><g fill="#544541" fill-opacity="1"><g transform="translate(105.771138, 123.711754)"><g><path d="M 11.625 0.320312 C 16.101562 0.320312 19.644531 -2.125 19.644531 -8.597656 L 19.644531 -18.453125 C 19.644531 -21.09375 19.964844 -21.835938 20.933594 -22.125 L 20.933594 -22.542969 L 16.941406 -22.542969 L 16.941406 -22.125 C 18.355469 -21.738281 19.128906 -20.835938 19.128906 -17.164062 L 19.128906 -8.5 C 19.128906 -2.191406 15.425781 -0.355469 12.65625 -0.355469 C 8.46875 -0.355469 5.152344 -2.511719 5.152344 -8.5 L 5.152344 -18.453125 C 5.152344 -21.09375 5.476562 -21.835938 6.441406 -22.125 L 6.441406 -22.542969 L 1.222656 -22.542969 L 1.222656 -22.125 C 2.222656 -21.835938 2.511719 -21.09375 2.511719 -18.453125 L 2.511719 -8.308594 C 2.511719 -1.835938 7.019531 0.320312 11.625 0.320312 Z M 11.625 0.320312 "/></g></g></g><g fill="#544541" fill-opacity="1"><g transform="translate(127.637873, 123.711754)"><g><path d="M 18.644531 0.257812 L 19.066406 0.257812 L 19.066406 -18.453125 C 19.066406 -21.09375 19.355469 -21.835938 20.351562 -22.125 L 20.351562 -22.542969 L 16.296875 -22.542969 L 16.296875 -22.125 C 17.746094 -21.738281 18.515625 -20.835938 18.515625 -17.164062 L 18.515625 -4.316406 L 4.445312 -22.542969 L 1.289062 -22.542969 L 1.289062 -22.125 C 2.578125 -21.835938 2.960938 -21.09375 2.960938 -18.453125 L 2.960938 -4.089844 C 2.960938 -1.449219 2.640625 -0.707031 1.675781 -0.417969 L 1.675781 0 L 5.699219 0 L 5.699219 -0.417969 C 4.25 -0.804688 3.476562 -1.707031 3.476562 -5.378906 L 3.476562 -19.484375 Z M 18.644531 0.257812 "/></g></g></g><path stroke-linecap="round" transform="matrix(-0.75, 0, 0, -0.75, 180.882005, 267.207873)" fill="none" stroke-linejoin="miter" d="M 1.498923 1.501122 L 122.941639 1.501122 " stroke="#544541" stroke-width="3" stroke-opacity="1" stroke-miterlimit="4"/><path stroke-linecap="round" transform="matrix(0, -0.75, 0.75, 0, 86.493251, 267.202132)" fill="none" stroke-linejoin="miter" d="M 1.498676 1.498582 L 135.32681 1.498582 " stroke="#544541" stroke-width="3" stroke-opacity="1" stroke-miterlimit="4"/><g fill="#544541" fill-opacity="1"><g transform="translate(192.965153, 272.979592)"><g><path d="M 10.902344 0.324219 C 16.878906 0.289062 20.1875 -4.425781 20.1875 -9.464844 C 20.1875 -14.789062 17.058594 -18.246094 12.882812 -18.246094 C 10.113281 -18.246094 7.628906 -16.839844 5.6875 -15.402344 L 5.6875 -18.027344 L 5.363281 -18.28125 L 1.4375 -16.554688 L 1.4375 -16.15625 C 2.410156 -15.726562 2.878906 -15.367188 2.878906 -12.847656 L 2.878906 5.144531 C 2.878906 8.097656 2.519531 8.925781 1.4375 9.25 L 1.4375 9.714844 L 7.125 9.714844 L 7.125 9.25 C 6.007812 8.925781 5.6875 8.097656 5.6875 5.144531 L 5.6875 -1.257812 C 7.054688 -0.359375 8.925781 0.324219 10.902344 0.324219 Z M 5.6875 -5.9375 L 5.6875 -14.824219 C 7.195312 -15.976562 8.886719 -17.019531 10.976562 -17.019531 C 16.011719 -17.019531 17.597656 -11.371094 17.597656 -7.375 C 17.597656 -3.203125 15.832031 -0.359375 12.054688 -0.359375 C 8.816406 -0.359375 5.6875 -3.492188 5.6875 -5.9375 Z M 5.6875 -5.9375 "/></g></g></g><g fill="#544541" fill-opacity="1"><g transform="translate(214.695044, 272.979592)"><g><path d="M 0.972656 0 L 6.65625 0 L 6.65625 -0.46875 C 5.542969 -0.792969 5.21875 -1.621094 5.21875 -4.570312 L 5.21875 -14.359375 C 7.054688 -15.871094 8.996094 -17.058594 10.976562 -17.058594 C 14.140625 -17.058594 15.726562 -15.003906 15.726562 -11.261719 L 15.726562 -4.570312 C 15.726562 -1.621094 15.402344 -0.792969 14.285156 -0.46875 L 14.285156 0 L 19.972656 0 L 19.972656 -0.46875 C 18.855469 -0.792969 18.53125 -1.621094 18.53125 -4.570312 L 18.53125 -11.984375 C 18.53125 -16.191406 16.375 -18.246094 12.847656 -18.246094 C 10.074219 -18.246094 7.304688 -16.625 5.21875 -14.933594 L 5.21875 -28.824219 L 4.894531 -29.074219 L 0.972656 -27.347656 L 0.972656 -26.953125 C 1.941406 -26.519531 2.410156 -26.160156 2.410156 -23.640625 L 2.410156 -4.570312 C 2.410156 -1.621094 2.085938 -0.792969 0.972656 -0.46875 Z M 0.972656 0 "/></g></g></g><g fill="#544541" fill-opacity="1"><g transform="translate(235.525521, 272.979592)"><g><path d="M 10.722656 0.359375 C 14.96875 0.359375 20.117188 -2.949219 20.117188 -9.105469 C 20.117188 -15.507812 15.1875 -18.246094 10.722656 -18.246094 C 5.792969 -18.246094 1.296875 -14.359375 1.296875 -8.746094 C 1.296875 -2.484375 6.152344 0.359375 10.722656 0.359375 Z M 4.066406 -10.796875 C 4.066406 -14.394531 5.722656 -17.417969 9.390625 -17.5625 C 14.105469 -17.8125 17.378906 -11.625 17.378906 -6.980469 C 17.378906 -3.492188 15.652344 -0.394531 11.804688 -0.394531 C 7.015625 -0.394531 4.066406 -6.226562 4.066406 -10.796875 Z M 4.066406 -10.796875 "/></g></g></g><g fill="#544541" fill-opacity="1"><g transform="translate(257.183464, 272.979592)"><g><path d="M 6.800781 0.359375 C 8.925781 0.359375 10.757812 -1.1875 12.308594 -2.949219 L 11.984375 -3.273438 C 10.796875 -1.871094 9.535156 -1.402344 8.527344 -1.402344 C 6.980469 -1.402344 5.972656 -2.339844 5.972656 -4.785156 L 5.972656 -17.488281 L 11.261719 -17.488281 L 11.441406 -17.992188 L 5.972656 -17.992188 L 5.972656 -22.417969 L 5.46875 -22.417969 L 0.863281 -17.992188 L 0.863281 -17.488281 L 3.167969 -17.488281 L 3.167969 -4.785156 C 3.167969 -1.042969 4.535156 0.359375 6.800781 0.359375 Z M 6.800781 0.359375 "/></g></g></g><g fill="#544541" fill-opacity="1"><g transform="translate(269.559435, 272.979592)"><g><path d="M 10.722656 0.359375 C 14.96875 0.359375 20.117188 -2.949219 20.117188 -9.105469 C 20.117188 -15.507812 15.1875 -18.246094 10.722656 -18.246094 C 5.792969 -18.246094 1.296875 -14.359375 1.296875 -8.746094 C 1.296875 -2.484375 6.152344 0.359375 10.722656 0.359375 Z M 4.066406 -10.796875 C 4.066406 -14.394531 5.722656 -17.417969 9.390625 -17.5625 C 14.105469 -17.8125 17.378906 -11.625 17.378906 -6.980469 C 17.378906 -3.492188 15.652344 -0.394531 11.804688 -0.394531 C 7.015625 -0.394531 4.066406 -6.226562 4.066406 -10.796875 Z M 4.066406 -10.796875 "/></g></g></g><g clip-path="url(#e92f6b7816)"><path fill="#544541" d="M 87.765625 134.683594 C 86.761719 143.175781 85.945312 143.992188 77.453125 144.996094 C 77.472656 145 77.488281 145 77.507812 145.003906 C 85.949219 146.003906 86.761719 146.835938 87.765625 155.308594 C 88.773438 146.816406 89.585938 146.003906 98.078125 144.996094 C 89.585938 143.992188 88.773438 143.175781 87.765625 134.683594 Z M 87.765625 134.683594 " fill-opacity="1" fill-rule="nonzero"/></g><g clip-path="url(#0c13c23560)"><path fill="#544541" d="M 286.976562 214.679688 C 285.96875 223.175781 285.15625 223.988281 276.664062 224.992188 C 276.679688 224.996094 276.695312 225 276.714844 225 C 285.15625 226.003906 285.972656 226.832031 286.976562 235.304688 C 287.980469 226.8125 288.792969 226 297.289062 224.992188 C 288.792969 223.988281 287.980469 223.175781 286.976562 214.679688 Z M 286.976562 214.679688 " fill-opacity="1" fill-rule="nonzero"/></g></svg>